<mxfile host="app.diagrams.net" modified="2023-10-09T08:56:59.467Z" agent="Mozilla/5.0 (Windows NT 10.0; Win64; x64) AppleWebKit/537.36 (KHTML, like Gecko) Chrome/117.0.0.0 Safari/537.36" etag="OFFNjRnrYyNOzWhRd30a" version="22.0.4" type="device">
  <diagram name="Page-1" id="55a83fd1-7818-8e21-69c5-c3457e3827bb">
    <mxGraphModel dx="1750" dy="943" grid="1" gridSize="10" guides="1" tooltips="1" connect="1" arrows="1" fold="1" page="1" pageScale="1" pageWidth="1100" pageHeight="850" background="none" math="0" shadow="0">
      <root>
        <mxCell id="0" />
        <mxCell id="1" parent="0" />
        <mxCell id="69ecfefc5c41e42c-2" value="Internet" style="image;html=1;labelBackgroundColor=#ffffff;image=img/lib/clip_art/networking/Cloud_128x128.png;rounded=1;shadow=0;comic=0;strokeWidth=2;fontSize=22;labelPosition=center;verticalLabelPosition=top;align=center;verticalAlign=bottom;" parent="1" vertex="1">
          <mxGeometry x="470" y="140" width="80" height="80" as="geometry" />
        </mxCell>
        <mxCell id="69ecfefc5c41e42c-19" style="edgeStyle=none;rounded=0;html=1;labelBackgroundColor=none;endArrow=none;strokeWidth=2;fontFamily=Verdana;fontSize=22" parent="1" source="69ecfefc5c41e42c-3" target="69ecfefc5c41e42c-2" edge="1">
          <mxGeometry relative="1" as="geometry" />
        </mxCell>
        <mxCell id="jA1eTffYIZ-u4WGQJC9J-23" style="edgeStyle=orthogonalEdgeStyle;rounded=0;orthogonalLoop=1;jettySize=auto;html=1;exitX=0.5;exitY=1;exitDx=0;exitDy=0;entryX=0.25;entryY=0;entryDx=0;entryDy=0;" edge="1" parent="1" source="69ecfefc5c41e42c-3" target="jA1eTffYIZ-u4WGQJC9J-17">
          <mxGeometry relative="1" as="geometry" />
        </mxCell>
        <mxCell id="69ecfefc5c41e42c-3" value="Firewall" style="image;html=1;labelBackgroundColor=#ffffff;image=img/lib/clip_art/networking/Firewall_128x128.png;rounded=1;shadow=0;comic=0;strokeWidth=2;fontSize=22;labelPosition=right;verticalLabelPosition=middle;align=left;verticalAlign=middle;" parent="1" vertex="1">
          <mxGeometry x="470" y="290" width="80" height="80" as="geometry" />
        </mxCell>
        <mxCell id="69ecfefc5c41e42c-5" value="PC" style="image;html=1;labelBackgroundColor=#ffffff;image=img/lib/clip_art/computers/Monitor_Tower_128x128.png;rounded=1;shadow=0;comic=0;strokeWidth=2;fontSize=22" parent="1" vertex="1">
          <mxGeometry x="250" y="910" width="80" height="80" as="geometry" />
        </mxCell>
        <mxCell id="69ecfefc5c41e42c-8" value="Mobile" style="image;html=1;labelBackgroundColor=#ffffff;image=img/lib/clip_art/telecommunication/iPhone_128x128.png;rounded=1;shadow=0;comic=0;strokeWidth=2;fontSize=22" parent="1" vertex="1">
          <mxGeometry x="690" y="1025" width="80" height="80" as="geometry" />
        </mxCell>
        <mxCell id="69ecfefc5c41e42c-9" value="Laptop" style="image;html=1;labelBackgroundColor=#ffffff;image=img/lib/clip_art/computers/Netbook_128x128.png;rounded=1;shadow=0;comic=0;strokeColor=#000000;strokeWidth=2;fillColor=#FFFFFF;fontSize=22;fontColor=#000000;" parent="1" vertex="1">
          <mxGeometry x="160" y="900" width="80" height="80" as="geometry" />
        </mxCell>
        <mxCell id="69ecfefc5c41e42c-10" value="Laptop" style="image;html=1;labelBackgroundColor=#ffffff;image=img/lib/clip_art/computers/Netbook_128x128.png;rounded=1;shadow=0;comic=0;strokeWidth=2;fontSize=22" parent="1" vertex="1">
          <mxGeometry x="430" y="1000" width="80" height="80" as="geometry" />
        </mxCell>
        <mxCell id="jA1eTffYIZ-u4WGQJC9J-3" value="Mobile" style="image;html=1;labelBackgroundColor=#ffffff;image=img/lib/clip_art/telecommunication/iPhone_128x128.png;rounded=1;shadow=0;comic=0;strokeWidth=2;fontSize=22" vertex="1" parent="1">
          <mxGeometry x="680" y="910" width="80" height="80" as="geometry" />
        </mxCell>
        <mxCell id="jA1eTffYIZ-u4WGQJC9J-5" value="Mobile" style="image;html=1;labelBackgroundColor=#ffffff;image=img/lib/clip_art/telecommunication/iPhone_128x128.png;rounded=1;shadow=0;comic=0;strokeWidth=2;fontSize=22" vertex="1" parent="1">
          <mxGeometry x="780" y="1025" width="80" height="80" as="geometry" />
        </mxCell>
        <mxCell id="jA1eTffYIZ-u4WGQJC9J-6" value="Mobile" style="image;html=1;labelBackgroundColor=#ffffff;image=img/lib/clip_art/telecommunication/iPhone_128x128.png;rounded=1;shadow=0;comic=0;strokeWidth=2;fontSize=22" vertex="1" parent="1">
          <mxGeometry x="770" y="910" width="80" height="80" as="geometry" />
        </mxCell>
        <mxCell id="jA1eTffYIZ-u4WGQJC9J-7" value="PC" style="image;html=1;labelBackgroundColor=#ffffff;image=img/lib/clip_art/computers/Monitor_Tower_128x128.png;rounded=1;shadow=0;comic=0;strokeWidth=2;fontSize=22" vertex="1" parent="1">
          <mxGeometry x="510" y="900" width="80" height="80" as="geometry" />
        </mxCell>
        <mxCell id="jA1eTffYIZ-u4WGQJC9J-8" value="PC" style="image;html=1;labelBackgroundColor=#ffffff;image=img/lib/clip_art/computers/Monitor_Tower_128x128.png;rounded=1;shadow=0;comic=0;strokeWidth=2;fontSize=22" vertex="1" parent="1">
          <mxGeometry x="250" y="1000" width="80" height="80" as="geometry" />
        </mxCell>
        <mxCell id="jA1eTffYIZ-u4WGQJC9J-9" value="PC" style="image;html=1;labelBackgroundColor=#ffffff;image=img/lib/clip_art/computers/Monitor_Tower_128x128.png;rounded=1;shadow=0;comic=0;strokeWidth=2;fontSize=22" vertex="1" parent="1">
          <mxGeometry x="510" y="1000" width="80" height="80" as="geometry" />
        </mxCell>
        <mxCell id="jA1eTffYIZ-u4WGQJC9J-10" value="Laptop" style="image;html=1;labelBackgroundColor=#ffffff;image=img/lib/clip_art/computers/Netbook_128x128.png;rounded=1;shadow=0;comic=0;strokeWidth=2;fontSize=22" vertex="1" parent="1">
          <mxGeometry x="430" y="910" width="80" height="80" as="geometry" />
        </mxCell>
        <mxCell id="jA1eTffYIZ-u4WGQJC9J-11" value="Laptop" style="image;html=1;labelBackgroundColor=#ffffff;image=img/lib/clip_art/computers/Netbook_128x128.png;rounded=1;shadow=0;comic=0;strokeWidth=2;fontSize=22" vertex="1" parent="1">
          <mxGeometry x="160" y="1010" width="80" height="80" as="geometry" />
        </mxCell>
        <mxCell id="jA1eTffYIZ-u4WGQJC9J-13" value="" style="image;html=1;image=img/lib/clip_art/computers/Server_Rack_128x128.png" vertex="1" parent="1">
          <mxGeometry x="140" y="580" width="80" height="80" as="geometry" />
        </mxCell>
        <mxCell id="jA1eTffYIZ-u4WGQJC9J-14" value="" style="image;html=1;image=img/lib/clip_art/computers/Server_Rack_128x128.png" vertex="1" parent="1">
          <mxGeometry x="140" y="670" width="80" height="80" as="geometry" />
        </mxCell>
        <mxCell id="jA1eTffYIZ-u4WGQJC9J-15" value="" style="image;html=1;image=img/lib/clip_art/networking/Cloud_Storage_128x128.png" vertex="1" parent="1">
          <mxGeometry x="140" y="270" width="80" height="80" as="geometry" />
        </mxCell>
        <mxCell id="jA1eTffYIZ-u4WGQJC9J-16" value="" style="image;html=1;image=img/lib/clip_art/networking/Cloud_Storage_128x128.png" vertex="1" parent="1">
          <mxGeometry x="140" y="350" width="80" height="80" as="geometry" />
        </mxCell>
        <mxCell id="jA1eTffYIZ-u4WGQJC9J-20" style="edgeStyle=orthogonalEdgeStyle;rounded=0;orthogonalLoop=1;jettySize=auto;html=1;exitX=0;exitY=1;exitDx=0;exitDy=0;" edge="1" parent="1" source="jA1eTffYIZ-u4WGQJC9J-17" target="jA1eTffYIZ-u4WGQJC9J-18">
          <mxGeometry relative="1" as="geometry" />
        </mxCell>
        <mxCell id="jA1eTffYIZ-u4WGQJC9J-21" style="edgeStyle=orthogonalEdgeStyle;rounded=0;orthogonalLoop=1;jettySize=auto;html=1;exitX=1;exitY=1;exitDx=0;exitDy=0;" edge="1" parent="1" source="jA1eTffYIZ-u4WGQJC9J-17" target="jA1eTffYIZ-u4WGQJC9J-19">
          <mxGeometry relative="1" as="geometry" />
        </mxCell>
        <mxCell id="jA1eTffYIZ-u4WGQJC9J-26" style="edgeStyle=orthogonalEdgeStyle;rounded=0;orthogonalLoop=1;jettySize=auto;html=1;exitX=0;exitY=0.5;exitDx=0;exitDy=0;" edge="1" parent="1" source="jA1eTffYIZ-u4WGQJC9J-17">
          <mxGeometry relative="1" as="geometry">
            <mxPoint x="220" y="499.66666666666674" as="targetPoint" />
          </mxGeometry>
        </mxCell>
        <mxCell id="jA1eTffYIZ-u4WGQJC9J-17" value="" style="image;html=1;labelBackgroundColor=#ffffff;image=img/lib/clip_art/networking/Wireless_Router_128x128.png;rounded=1;shadow=0;comic=0;strokeWidth=2;fontSize=22" vertex="1" parent="1">
          <mxGeometry x="490" y="460" width="80" height="80" as="geometry" />
        </mxCell>
        <mxCell id="jA1eTffYIZ-u4WGQJC9J-51" style="edgeStyle=orthogonalEdgeStyle;rounded=0;orthogonalLoop=1;jettySize=auto;html=1;exitX=0.5;exitY=1;exitDx=0;exitDy=0;" edge="1" parent="1" source="jA1eTffYIZ-u4WGQJC9J-18">
          <mxGeometry relative="1" as="geometry">
            <mxPoint x="250" y="900" as="targetPoint" />
          </mxGeometry>
        </mxCell>
        <mxCell id="jA1eTffYIZ-u4WGQJC9J-18" value="&lt;font style=&quot;font-size: 18px;&quot;&gt;Admin router&lt;br&gt;IP: 322.26.55.9&lt;/font&gt;" style="image;html=1;image=img/lib/clip_art/networking/Switch_128x128.png" vertex="1" parent="1">
          <mxGeometry x="390" y="610" width="80" height="80" as="geometry" />
        </mxCell>
        <mxCell id="jA1eTffYIZ-u4WGQJC9J-52" style="edgeStyle=orthogonalEdgeStyle;rounded=0;orthogonalLoop=1;jettySize=auto;html=1;exitX=0.5;exitY=1;exitDx=0;exitDy=0;" edge="1" parent="1" source="jA1eTffYIZ-u4WGQJC9J-19">
          <mxGeometry relative="1" as="geometry">
            <mxPoint x="500" y="900" as="targetPoint" />
          </mxGeometry>
        </mxCell>
        <mxCell id="jA1eTffYIZ-u4WGQJC9J-53" style="edgeStyle=orthogonalEdgeStyle;rounded=0;orthogonalLoop=1;jettySize=auto;html=1;exitX=1;exitY=0.5;exitDx=0;exitDy=0;" edge="1" parent="1" source="jA1eTffYIZ-u4WGQJC9J-19">
          <mxGeometry relative="1" as="geometry">
            <mxPoint x="770" y="900.0000000000002" as="targetPoint" />
          </mxGeometry>
        </mxCell>
        <mxCell id="jA1eTffYIZ-u4WGQJC9J-19" value="&lt;font style=&quot;font-size: 18px;&quot;&gt;client router:&lt;br&gt;IP: 190.7.25.10&lt;/font&gt;" style="image;html=1;image=img/lib/clip_art/networking/Switch_128x128.png" vertex="1" parent="1">
          <mxGeometry x="590" y="610" width="80" height="80" as="geometry" />
        </mxCell>
        <mxCell id="jA1eTffYIZ-u4WGQJC9J-30" value="" style="edgeStyle=orthogonalEdgeStyle;rounded=0;orthogonalLoop=1;jettySize=auto;html=1;" edge="1" parent="1" source="jA1eTffYIZ-u4WGQJC9J-28" target="jA1eTffYIZ-u4WGQJC9J-13">
          <mxGeometry relative="1" as="geometry" />
        </mxCell>
        <mxCell id="jA1eTffYIZ-u4WGQJC9J-28" value="" style="image;html=1;labelBackgroundColor=#ffffff;image=img/lib/clip_art/networking/Wireless_Router_128x128.png;rounded=1;shadow=0;comic=0;strokeWidth=2;fontSize=22" vertex="1" parent="1">
          <mxGeometry x="140" y="460" width="80" height="80" as="geometry" />
        </mxCell>
        <mxCell id="jA1eTffYIZ-u4WGQJC9J-31" style="edgeStyle=orthogonalEdgeStyle;rounded=0;orthogonalLoop=1;jettySize=auto;html=1;exitX=0.5;exitY=0;exitDx=0;exitDy=0;entryX=0.5;entryY=0.75;entryDx=0;entryDy=0;entryPerimeter=0;" edge="1" parent="1" source="jA1eTffYIZ-u4WGQJC9J-28" target="jA1eTffYIZ-u4WGQJC9J-16">
          <mxGeometry relative="1" as="geometry" />
        </mxCell>
        <mxCell id="jA1eTffYIZ-u4WGQJC9J-32" value="&lt;font style=&quot;font-size: 18px;&quot;&gt;Cloud&lt;br&gt;Storage&lt;/font&gt;" style="text;html=1;strokeColor=none;fillColor=none;align=center;verticalAlign=middle;whiteSpace=wrap;rounded=0;" vertex="1" parent="1">
          <mxGeometry x="150" y="250" width="60" height="30" as="geometry" />
        </mxCell>
        <mxCell id="jA1eTffYIZ-u4WGQJC9J-33" value="&lt;font style=&quot;font-size: 18px;&quot;&gt;Local Storage&lt;/font&gt;" style="text;html=1;strokeColor=none;fillColor=none;align=center;verticalAlign=middle;whiteSpace=wrap;rounded=0;" vertex="1" parent="1">
          <mxGeometry x="150" y="750" width="60" height="30" as="geometry" />
        </mxCell>
        <mxCell id="jA1eTffYIZ-u4WGQJC9J-35" value="" style="endArrow=none;html=1;rounded=0;" edge="1" parent="1">
          <mxGeometry width="50" height="50" relative="1" as="geometry">
            <mxPoint x="420" y="900" as="sourcePoint" />
            <mxPoint x="600" y="900" as="targetPoint" />
          </mxGeometry>
        </mxCell>
        <mxCell id="jA1eTffYIZ-u4WGQJC9J-39" value="" style="endArrow=none;html=1;rounded=0;" edge="1" parent="1">
          <mxGeometry width="50" height="50" relative="1" as="geometry">
            <mxPoint x="420" y="1120" as="sourcePoint" />
            <mxPoint x="600" y="1120" as="targetPoint" />
          </mxGeometry>
        </mxCell>
        <mxCell id="jA1eTffYIZ-u4WGQJC9J-40" value="" style="endArrow=none;html=1;rounded=0;" edge="1" parent="1">
          <mxGeometry width="50" height="50" relative="1" as="geometry">
            <mxPoint x="160" y="899.17" as="sourcePoint" />
            <mxPoint x="340" y="899.17" as="targetPoint" />
          </mxGeometry>
        </mxCell>
        <mxCell id="jA1eTffYIZ-u4WGQJC9J-41" value="" style="endArrow=none;html=1;rounded=0;" edge="1" parent="1">
          <mxGeometry width="50" height="50" relative="1" as="geometry">
            <mxPoint x="150" y="1130" as="sourcePoint" />
            <mxPoint x="330" y="1130" as="targetPoint" />
          </mxGeometry>
        </mxCell>
        <mxCell id="jA1eTffYIZ-u4WGQJC9J-42" value="" style="endArrow=none;html=1;rounded=0;" edge="1" parent="1">
          <mxGeometry width="50" height="50" relative="1" as="geometry">
            <mxPoint x="680" y="899.17" as="sourcePoint" />
            <mxPoint x="860" y="899.17" as="targetPoint" />
          </mxGeometry>
        </mxCell>
        <mxCell id="jA1eTffYIZ-u4WGQJC9J-43" value="" style="endArrow=none;html=1;rounded=0;" edge="1" parent="1">
          <mxGeometry width="50" height="50" relative="1" as="geometry">
            <mxPoint x="690" y="1150" as="sourcePoint" />
            <mxPoint x="870" y="1150" as="targetPoint" />
          </mxGeometry>
        </mxCell>
        <mxCell id="jA1eTffYIZ-u4WGQJC9J-44" value="" style="endArrow=none;html=1;rounded=0;" edge="1" parent="1">
          <mxGeometry width="50" height="50" relative="1" as="geometry">
            <mxPoint x="690" y="1150" as="sourcePoint" />
            <mxPoint x="680" y="900" as="targetPoint" />
          </mxGeometry>
        </mxCell>
        <mxCell id="jA1eTffYIZ-u4WGQJC9J-46" value="" style="endArrow=none;html=1;rounded=0;" edge="1" parent="1">
          <mxGeometry width="50" height="50" relative="1" as="geometry">
            <mxPoint x="870" y="1150" as="sourcePoint" />
            <mxPoint x="860" y="900" as="targetPoint" />
          </mxGeometry>
        </mxCell>
        <mxCell id="jA1eTffYIZ-u4WGQJC9J-47" value="" style="endArrow=none;html=1;rounded=0;" edge="1" parent="1">
          <mxGeometry width="50" height="50" relative="1" as="geometry">
            <mxPoint x="600" y="1120" as="sourcePoint" />
            <mxPoint x="600" y="900" as="targetPoint" />
          </mxGeometry>
        </mxCell>
        <mxCell id="jA1eTffYIZ-u4WGQJC9J-48" value="" style="endArrow=none;html=1;rounded=0;" edge="1" parent="1">
          <mxGeometry width="50" height="50" relative="1" as="geometry">
            <mxPoint x="420" y="1120" as="sourcePoint" />
            <mxPoint x="420" y="900" as="targetPoint" />
          </mxGeometry>
        </mxCell>
        <mxCell id="jA1eTffYIZ-u4WGQJC9J-49" value="" style="endArrow=none;html=1;rounded=0;" edge="1" parent="1">
          <mxGeometry width="50" height="50" relative="1" as="geometry">
            <mxPoint x="330" y="1130" as="sourcePoint" />
            <mxPoint x="340" y="900" as="targetPoint" />
          </mxGeometry>
        </mxCell>
        <mxCell id="jA1eTffYIZ-u4WGQJC9J-50" value="" style="endArrow=none;html=1;rounded=0;" edge="1" parent="1">
          <mxGeometry width="50" height="50" relative="1" as="geometry">
            <mxPoint x="150" y="1130" as="sourcePoint" />
            <mxPoint x="160" y="900" as="targetPoint" />
          </mxGeometry>
        </mxCell>
        <mxCell id="jA1eTffYIZ-u4WGQJC9J-54" value="&lt;font style=&quot;font-size: 20px;&quot;&gt;Client devices&lt;br&gt;GATEWAY:&lt;br&gt;190.7.25.10&lt;/font&gt;" style="text;html=1;strokeColor=none;fillColor=none;align=center;verticalAlign=middle;whiteSpace=wrap;rounded=0;" vertex="1" parent="1">
          <mxGeometry x="465" y="1140" width="90" height="70" as="geometry" />
        </mxCell>
        <mxCell id="jA1eTffYIZ-u4WGQJC9J-55" value="&lt;font style=&quot;font-size: 20px;&quot;&gt;Client devices&lt;br&gt;GATEWAY:&lt;br&gt;190.7.25.10&lt;/font&gt;" style="text;html=1;strokeColor=none;fillColor=none;align=center;verticalAlign=middle;whiteSpace=wrap;rounded=0;" vertex="1" parent="1">
          <mxGeometry x="730" y="1170" width="90" height="70" as="geometry" />
        </mxCell>
        <mxCell id="jA1eTffYIZ-u4WGQJC9J-56" value="&lt;font style=&quot;font-size: 20px;&quot;&gt;Admin devices&lt;br&gt;GATEWAY:&lt;br&gt;322.26.55.9&lt;br&gt;&lt;/font&gt;" style="text;html=1;strokeColor=none;fillColor=none;align=center;verticalAlign=middle;whiteSpace=wrap;rounded=0;" vertex="1" parent="1">
          <mxGeometry x="200" y="1150" width="90" height="70" as="geometry" />
        </mxCell>
      </root>
    </mxGraphModel>
  </diagram>
</mxfile>
